<svg width="32" height="32" viewBox="0 0 32 32" xmlns="http://www.w3.org/2000/svg"><path fill="currentColor" d="M20 4h-8v6h8V4Z"/><path fill="currentColor" d="M20 12h-8v8h8v-8Z"/><path fill="currentColor" d="M22 20v-8h6v8h-6Z"/><path fill="currentColor" d="M20 22h-8v6h8v-6Z"/><path fill="currentColor" d="M22 28v-6h6v1a5 5 0 0 1-5 5h-1Z"/><path fill="currentColor" d="M22 10V4h1a5 5 0 0 1 5 5v1h-6Z"/><path fill="currentColor" d="M9 4h1v6H4V9a5 5 0 0 1 5-5Z"/><path fill="currentColor" d="M4 12h6v8H4v-8Z"/><path fill="currentColor" d="M4 22h6v6H9a5 5 0 0 1-5-5v-1Z"/></svg>